# xmcd CD database file
#
# Track frame offsets:
#	150
#	23779
#	39552
#	60011
#	74689
#	90143
#	108916
#	125742
#	143174
#	161719
#	184909
#	204204
#	231213
#	256019
#	271861
#
# Disc length: 3925 seconds
#
# Revision: 0
# Processed by: cddbd v1.5.1PL2 Copyright (c) Steve Scherf et al.
# Submitted via: Feurio! 1.68 - http://www.feurio.com
#
DISCID=c30f530f
DTITLE=George Thorogood - Anthology (edit) CD 1
DYEAR=1900
DGENRE=Bluesrock
TTITLE0=Who Do You Love
TTITLE1=Born To Be Bad
TTITLE2=You Talk Too Much
TTITLE3=I'm Ready
TTITLE4=Shake Your Money Maker
TTITLE5=If You Don't Start Drinkin'
TTITLE6=Hello Little Girl
TTITLE7=Long Distance Lover
TTITLE8=Get A Haircut
TTITLE9=Howlin' For My Baby
TTITLE10=Christine
TTITLE11=Let's Work Together
TTITLE12=Johnny B. Good
TTITLE13=Rockin' My Life Away
TTITLE14=I Don't Trust Nobody
EXTD=
EXTT0=
EXTT1=
EXTT2=
EXTT3=
EXTT4=
EXTT5=
EXTT6=
EXTT7=
EXTT8=
EXTT9=
EXTT10=
EXTT11=
EXTT12=
EXTT13=
EXTT14=
PLAYORDER=
